<svg width="607" height="820" viewBox="0 0 607 820" fill="none" xmlns="http://www.w3.org/2000/svg">
<g clip-path="url(#clip0_908_664)">
<g clip-path="url(#clip1_908_664)">
<path d="M467.403 203.353C468.03 198.34 468.5 193.327 468.5 188C468.5 182.673 468.03 177.66 467.403 172.647L500.46 146.797C503.437 144.447 504.22 140.217 502.34 136.77L471.007 82.5632C469.597 80.0566 466.933 78.6466 464.113 78.6466C463.173 78.6466 462.233 78.8033 461.45 79.1166L422.44 94.7833C414.293 88.5166 405.52 83.3466 395.963 79.4299L390.01 37.9133C389.54 34.1533 386.25 31.3333 382.333 31.3333H319.667C315.75 31.3333 312.46 34.1533 311.99 37.9133L306.037 79.4299C296.48 83.3466 287.707 88.6733 279.56 94.7833L240.55 79.1166C239.61 78.8033 238.67 78.6466 237.73 78.6466C235.067 78.6466 232.403 80.0566 230.993 82.5632L199.66 136.77C197.623 140.217 198.563 144.447 201.54 146.797L234.597 172.647C233.97 177.66 233.5 182.83 233.5 188C233.5 193.17 233.97 198.34 234.597 203.353L201.54 229.203C198.563 231.553 197.78 235.783 199.66 239.23L230.993 293.437C232.403 295.943 235.067 297.353 237.887 297.353C238.827 297.353 239.767 297.197 240.55 296.883L279.56 281.217C287.707 287.483 296.48 292.653 306.037 296.57L311.99 338.087C312.46 341.847 315.75 344.667 319.667 344.667H382.333C386.25 344.667 389.54 341.847 390.01 338.087L395.963 296.57C405.52 292.653 414.293 287.327 422.44 281.217L461.45 296.883C462.39 297.197 463.33 297.353 464.27 297.353C466.933 297.353 469.597 295.943 471.007 293.437L502.34 239.23C504.22 235.783 503.437 231.553 500.46 229.203L467.403 203.353V203.353ZM436.383 176.563C437.01 181.42 437.167 184.71 437.167 188C437.167 191.29 436.853 194.737 436.383 199.437L434.19 217.14L448.133 228.107L465.053 241.267L454.087 260.223L434.19 252.233L417.897 245.653L403.797 256.307C397.06 261.32 390.637 265.08 384.213 267.743L367.607 274.48L365.1 292.183L361.967 313.333H340.033L337.057 292.183L334.55 274.48L317.943 267.743C311.207 264.923 304.94 261.32 298.673 256.62L284.417 245.653L267.81 252.39L247.913 260.38L236.947 241.423L253.867 228.263L267.81 217.297L265.617 199.593C265.147 194.737 264.833 191.133 264.833 188C264.833 184.867 265.147 181.263 265.617 176.563L267.81 158.86L253.867 147.893L236.947 134.733L247.913 115.777L267.81 123.767L284.103 130.347L298.203 119.693C304.94 114.68 311.363 110.92 317.787 108.257L334.393 101.52L336.9 83.8166L340.033 62.6666H361.81L364.787 83.8166L367.293 101.52L383.9 108.257C390.637 111.077 396.903 114.68 403.17 119.38L417.427 130.347L434.033 123.61L453.93 115.62L464.897 134.577L448.133 147.893L434.19 158.86L436.383 176.563ZM351 125.333C316.377 125.333 288.333 153.377 288.333 188C288.333 222.623 316.377 250.667 351 250.667C385.623 250.667 413.667 222.623 413.667 188C413.667 153.377 385.623 125.333 351 125.333ZM351 219.333C333.767 219.333 319.667 205.233 319.667 188C319.667 170.767 333.767 156.667 351 156.667C368.233 156.667 382.333 170.767 382.333 188C382.333 205.233 368.233 219.333 351 219.333Z" fill="#323232"/>
</g>
<g clip-path="url(#clip2_908_664)">
<path d="M278.55 482.405C281.176 479.347 283.698 476.219 286.045 472.676C288.393 469.134 290.29 465.592 292.082 461.981L325.461 459.356C328.477 459.105 330.862 456.637 331.13 453.516L334.179 403.653C334.346 401.365 333.196 399.253 331.32 398.01C330.695 397.596 330 397.286 329.341 397.149L296.491 390.378C293.834 382.619 290.277 375.314 285.647 368.498L299.984 338.26C301.328 335.552 300.383 332.227 297.778 330.501L256.097 302.884C253.492 301.157 250.061 301.583 248.091 303.877L225.835 328.867C217.753 327.26 209.57 326.937 201.459 327.41L182.417 299.798C181.93 299.176 181.373 298.657 180.748 298.243C178.977 297.069 176.584 296.833 174.541 297.879L129.812 320.124C126.939 321.519 125.7 324.747 126.644 327.622L137.238 359.383C134.612 362.442 132.021 365.673 129.743 369.112C127.464 372.55 125.498 376.196 123.706 379.807L90.327 382.432C87.3116 382.683 84.9264 385.152 84.6579 388.272L81.6093 438.135C81.4425 440.424 82.5925 442.535 84.4681 443.778C85.0933 444.192 85.7876 444.502 86.4467 444.639L119.297 451.411C121.954 459.169 125.511 466.474 130.141 473.291L115.804 503.528C114.46 506.236 115.405 509.561 118.011 511.287L159.691 538.905C162.296 540.631 165.727 540.205 167.697 537.911L189.953 512.921C198.035 514.528 206.218 514.852 214.329 514.378L233.371 541.99C233.859 542.613 234.415 543.131 235.04 543.545C236.811 544.719 239.204 544.955 241.247 543.909L285.976 521.664C288.745 520.2 290.089 517.041 289.144 514.166L278.55 482.405V482.405ZM269.724 450.916C268.001 454.422 266.655 456.68 265.205 458.868C263.755 461.056 262.028 463.21 259.644 466.129L250.383 476.938L254.824 490.377L260.278 506.586L244.63 514.362L234.918 500.279L226.98 488.722L212.907 489.594C206.217 489.959 200.288 489.629 194.842 488.57L180.828 485.732L171.359 496.402L159.954 509.089L145.365 499.423L152.706 484.044L158.841 471.164L150.764 459.365C147.527 454.52 144.946 449.362 142.85 443.474L138.2 429.897L124.186 427.059L107.431 423.605L108.491 406.164L125.545 404.867L139.652 403.718L145.995 390.977C147.823 387.539 149.202 385.004 150.583 382.92C151.964 380.836 153.76 378.578 156.144 375.659L165.405 364.851L160.964 351.412L155.51 335.202L171.158 327.427L180.87 341.509L188.808 353.066L202.881 352.195C209.571 351.829 215.5 352.159 220.946 353.218L234.96 356.056L244.43 345.386L255.834 332.7L270.318 342.297L262.978 357.676L256.843 370.555L264.919 382.354C268.157 387.199 270.737 392.357 272.834 398.245L277.484 411.822L291.498 414.66L308.253 418.114L307.193 435.556L290.174 437.025L276.067 438.174L269.724 450.916ZM235.511 379.213C212.483 363.955 181.472 370.248 166.213 393.277C150.955 416.305 157.248 447.316 180.277 462.575C203.305 477.833 234.316 471.54 249.575 448.511C264.833 425.483 258.54 394.472 235.511 379.213ZM194.085 441.735C182.623 434.14 179.459 418.548 187.054 407.085C194.648 395.623 210.24 392.459 221.703 400.054C233.165 407.648 236.329 423.241 228.734 434.703C221.14 446.165 205.548 449.329 194.085 441.735Z" fill="#323232"/>
</g>
<g clip-path="url(#clip3_908_664)">
<path d="M351.402 611.016C354.114 613.303 356.885 615.498 360.021 617.536C363.157 619.574 366.289 621.215 369.48 622.764L372.051 652.116C372.296 654.767 374.487 656.847 377.235 657.059L421.136 659.351C423.152 659.48 425.001 658.451 426.08 656.791C426.439 656.238 426.707 655.624 426.822 655.043L432.523 626.083C439.33 623.684 445.73 620.497 451.692 616.369L478.412 628.748C480.805 629.91 483.724 629.052 485.223 626.746L509.199 589.852C510.697 587.546 510.296 584.53 508.262 582.815L486.097 563.426C487.448 556.301 487.668 549.098 487.188 541.965L511.336 524.992C511.881 524.558 512.332 524.065 512.692 523.512C513.711 521.944 513.9 519.836 512.964 518.047L493.038 478.861C491.788 476.343 488.938 475.278 486.416 476.132L458.55 485.703C455.838 483.416 452.974 481.162 449.931 479.184C446.887 477.206 443.663 475.504 440.472 473.955L437.9 444.604C437.656 441.952 435.465 439.872 432.717 439.661L388.816 437.369C386.8 437.24 384.951 438.268 383.872 439.928C383.513 440.482 383.245 441.095 383.13 441.676L377.429 470.637C370.622 473.035 364.222 476.222 358.26 480.35L331.54 467.971C329.146 466.809 326.228 467.667 324.729 469.973L300.753 506.867C299.255 509.173 299.656 512.189 301.69 513.904L323.855 533.293C322.504 540.418 322.284 547.621 322.764 554.755L298.615 571.727C298.071 572.161 297.619 572.654 297.26 573.208C296.241 574.776 296.052 576.883 296.988 578.672L316.914 617.858C318.224 620.284 321.014 621.441 323.536 620.588L351.402 611.016V611.016ZM379.042 603.003C375.943 601.514 373.946 600.348 372.009 599.089C370.072 597.83 368.163 596.327 365.576 594.252L355.992 586.188L344.201 590.201L329.98 595.127L323.016 581.418L335.332 572.761L345.439 565.686L344.562 553.309C344.188 547.425 344.432 542.205 345.321 537.404L347.709 525.05L338.245 516.801L326.992 506.865L335.384 493.952L348.974 500.291L360.356 505.588L370.676 498.389C374.913 495.502 379.432 493.191 384.597 491.3L396.508 487.102L398.895 474.748L401.804 459.977L417.16 460.773L418.434 475.77L419.556 488.174L430.818 493.656C433.857 495.238 436.098 496.432 437.943 497.631C439.787 498.829 441.789 500.392 444.376 502.467L453.959 510.532L465.751 506.519L479.972 501.592L486.936 515.301L474.62 523.958L464.513 531.033L465.39 543.41C465.764 549.294 465.52 554.514 464.631 559.315L462.243 571.669L471.707 579.918L482.96 589.855L474.628 602.675L461.037 596.336L449.656 591.039L439.336 598.238C435.099 601.125 430.58 603.436 425.415 605.327L413.504 609.525L411.117 621.879L408.208 636.65L392.852 635.854L391.426 620.89L390.304 608.485L379.042 603.003ZM441.87 572.335C455.116 551.952 449.336 524.712 428.952 511.466C408.568 498.219 381.329 504 368.082 524.384C354.835 544.768 360.616 572.007 381 585.254C401.384 598.5 428.623 592.719 441.87 572.335ZM386.529 536.372C393.122 526.226 406.818 523.319 416.964 529.913C427.11 536.506 430.016 550.202 423.423 560.348C416.83 570.493 403.134 573.4 392.988 566.807C382.842 560.213 379.936 546.518 386.529 536.372Z" fill="#323232"/>
</g>
<path d="M276.947 767.859C279.542 768.558 282.148 769.175 284.954 769.567C287.76 769.958 290.436 770.08 293.123 770.118L304.309 789.434C305.328 791.175 307.499 791.899 309.453 791.162L340.314 778.644C341.738 778.085 342.677 776.786 342.885 775.301C342.954 774.805 342.94 774.299 342.833 773.863L337.45 752.16C341.35 748.329 344.719 744.088 347.486 739.341L369.795 739.259C371.81 739.288 373.538 737.763 373.826 735.699L378.436 702.686C378.724 700.623 377.481 698.683 375.534 698.158L354.101 691.968C352.741 686.645 350.58 681.631 347.961 676.89L359.084 657.492C359.318 657.02 359.47 656.536 359.539 656.041C359.735 654.638 359.188 653.131 357.972 652.204L331.72 631.71C330.055 630.383 327.757 630.567 326.3 631.963L310.25 647.475C307.655 646.776 304.966 646.148 302.243 645.768C299.519 645.388 296.761 645.255 294.074 645.216L282.888 625.9C281.869 624.159 279.698 623.435 277.744 624.172L246.883 636.691C245.459 637.249 244.52 638.548 244.312 640.034C244.243 640.529 244.257 641.036 244.364 641.471L249.747 663.175C245.847 667.005 242.478 671.247 239.711 675.993L217.402 676.075C215.387 676.046 213.659 677.572 213.371 679.635L208.761 712.648C208.473 714.711 209.716 716.652 211.663 717.176L233.096 723.367C234.456 728.689 236.617 733.703 239.236 738.444L228.113 757.842C227.879 758.314 227.727 758.798 227.658 759.293C227.462 760.696 228.009 762.203 229.225 763.13L255.477 783.625C257.154 784.869 259.44 784.767 260.897 783.372L276.947 767.859V767.859ZM293.342 753.489C290.737 753.462 288.993 753.302 287.259 753.06C285.526 752.818 283.734 752.399 281.292 751.806L272.127 749.348L265.324 755.887L257.147 763.832L247.967 756.66L253.64 746.766L258.305 738.667L253.73 730.455C251.585 726.538 250.077 722.877 249.146 719.297L246.819 710.053L237.677 707.431L226.766 704.224L228.379 692.669L239.74 692.657L249.251 692.639L254.021 684.386C256.003 681.045 258.362 678.009 261.299 675.053L268.125 668.349L265.798 659.105L263.052 648.036L273.846 643.653L279.534 653.535L284.285 661.687L293.773 661.834C296.366 661.944 298.287 662.044 299.938 662.274C301.588 662.505 303.464 662.935 305.905 663.528L315.07 665.986L321.873 659.448L330.05 651.502L339.23 658.674L333.557 668.568L328.892 676.667L333.467 684.879C335.612 688.797 337.12 692.457 338.051 696.037L340.378 705.281L349.52 707.904L360.431 711.111L358.829 722.583L347.468 722.595L337.958 722.613L333.187 730.866C331.206 734.207 328.847 737.243 325.91 740.199L319.084 746.902L321.411 756.146L324.156 767.216L313.363 771.599L307.581 761.788L302.829 753.636L293.342 753.489ZM326.611 712.278C329.159 694.038 316.448 677.201 298.209 674.654C279.969 672.107 263.133 684.817 260.586 703.057C258.038 721.297 270.749 738.133 288.988 740.68C307.228 743.227 324.064 730.517 326.611 712.278ZM277.092 705.362C278.36 696.283 286.825 689.893 295.904 691.161C304.982 692.429 311.373 700.894 310.105 709.972C308.837 719.051 300.372 725.442 291.293 724.174C282.215 722.906 275.824 714.441 277.092 705.362Z" fill="#323232"/>
</g>
<defs>
<clipPath id="clip0_908_664">
<rect width="607" height="820" fill="white"/>
</clipPath>
<clipPath id="clip1_908_664">
<rect width="376" height="376" fill="white" transform="translate(163)"/>
</clipPath>
<clipPath id="clip2_908_664">
<rect width="300" height="300" fill="white" transform="translate(165.704 213) rotate(33.5281)"/>
</clipPath>
<clipPath id="clip3_908_664">
<rect width="264" height="264" fill="white" transform="translate(587.585 509.605) rotate(123.018)"/>
</clipPath>
</defs>
</svg>
